<svg width="512" height="512" viewBox="0 0 512 512" fill="none" xmlns="http://www.w3.org/2000/svg">
<path d="M0 194.242C1.90727 191.227 2.43743 189.083 6.40005 188.067C9.34175 187.312 12.3191 186.747 15.2852 186.136L30.7603 182.953L94.4413 169.801L389.362 108.833L464.932 93.218L489.15 88.2113C493.095 87.394 497.117 86.3403 501.087 85.7645C507.092 84.8933 509.517 87.247 512 92.019V96.0193C510.697 98.4965 509.48 102.352 508.49 105.035L502.435 121.534L482.478 175.678L416.105 355.813L399.975 399.595L395.15 412.785C392.592 419.763 389.628 430.32 379.663 425.05C376.568 423.415 373.592 421.295 370.652 419.38L354.883 409.113L306.422 377.6C298.615 372.52 288.28 365.31 280.51 360.89L213.29 405.668L193.505 418.865C190.209 421.063 186.909 423.253 183.639 425.328C179.051 428.243 172.139 425.145 171.454 419.935C170.519 412.82 169.218 405.853 167.949 398.793L153.505 318.65L148.872 292.933C148.107 288.67 147.239 282.755 146.205 278.663C142.231 276.268 136.931 273.678 132.756 271.485L110.245 259.605L38.52 221.785L15.6608 209.744C11.8106 207.727 7.56475 205.626 3.8664 203.345C1.79127 202.065 1.1711 200.216 0 198.414V194.242ZM228.619 306.53C235.587 311.443 243.748 316.495 250.945 321.17L288.372 345.48L346.79 383.46C357.708 390.555 368.782 397.908 379.78 404.833C382.93 396.95 385.95 388.293 388.895 380.295L404.94 336.73L453.733 204.312L475.483 145.294C476.89 141.487 485.145 120.016 485.128 118.476L484.965 118.241C476.872 124.069 468.825 129.958 460.82 135.908L419.453 166.355L301.612 252.975L253.128 288.628L237.499 300.138C234.904 302.048 231.28 304.873 228.619 306.53ZM218.435 320.548C216.991 325.993 215.063 331.933 213.419 337.36L204.602 366.44L198.745 385.823C197.748 389.125 196.421 394.005 195.184 397.118C198.689 395.015 202.58 392.273 206.007 389.973L223.573 378.235L251.027 359.918C254.715 357.46 261.682 353.12 264.802 350.58L234.301 330.74C229.79 327.803 222.958 323.043 218.435 320.548ZM410.93 151.05C404.992 153.87 398.84 157.198 392.938 160.211L356.475 178.864L252.795 231.983L191.848 263.21L173.536 272.57C170.856 273.94 165.906 276.315 163.517 277.87L173.173 331.413C175.06 341.868 177.769 354.778 179.193 365.145C179.591 367.075 181.444 378.45 182.253 379.255C182.931 378.608 198.874 325.99 200.447 320.885C207.198 298.985 203.63 303.723 222.777 289.658L255.122 265.895L359.902 188.863L397.275 161.395C401.767 158.056 406.732 154.751 411.052 151.264L410.93 151.05ZM76.311 222.373L127.067 249.185L144.232 258.248C146.912 259.663 151.375 262.17 154.058 263.28C161.675 259.598 169.618 255.355 177.169 251.483L218.757 230.172L350.658 162.619L415.402 129.459C423.087 125.507 430.767 121.544 438.497 117.681C439.705 117.078 440.862 116.512 441.967 115.735L441.895 115.493L441.235 115.584C408.697 122.688 375.538 129.258 342.888 136.005L163.161 173.141L75.068 191.341L48.368 196.855C44.405 197.672 37.2692 199.35 33.4502 199.666C45.4427 206.352 57.7968 212.516 69.896 219.019C71.9873 220.143 74.1792 221.337 76.311 222.373Z" fill="currentColor"/>
</svg>
